<?xml version="1.0" encoding="UTF-8" standalone="no"?>
<!-- Generator: Adobe Illustrator 15.0.0, SVG Export Plug-In . SVG Version: 6.00 Build 0)  -->

<svg
   xmlns:dc="http://purl.org/dc/elements/1.1/"
   xmlns:cc="http://creativecommons.org/ns#"
   xmlns:rdf="http://www.w3.org/1999/02/22-rdf-syntax-ns#"
   xmlns:svg="http://www.w3.org/2000/svg"
   xmlns="http://www.w3.org/2000/svg"
   xmlns:sodipodi="http://sodipodi.sourceforge.net/DTD/sodipodi-0.dtd"
   xmlns:inkscape="http://www.inkscape.org/namespaces/inkscape"
   version="1.1"
   id="Isolation_Mode"
   x="0px"
   y="0px"
   width="64.652"
   height="64.650002"
   viewBox="0 0 64.652 64.650002"
   enable-background="new 0 0 612 792"
   xml:space="preserve"
   inkscape:version="0.91 r13725"
   sodipodi:docname="clock.svg"><metadata
     id="metadata13"><rdf:RDF><cc:Work
         rdf:about=""><dc:format>image/svg+xml</dc:format><dc:type
           rdf:resource="http://purl.org/dc/dcmitype/StillImage" /><dc:title></dc:title></cc:Work></rdf:RDF></metadata><defs
     id="defs11" /><sodipodi:namedview
     pagecolor="#ffffff"
     bordercolor="#666666"
     borderopacity="1"
     objecttolerance="10"
     gridtolerance="10"
     guidetolerance="10"
     inkscape:pageopacity="0"
     inkscape:pageshadow="2"
     inkscape:window-width="1406"
     inkscape:window-height="1246"
     id="namedview9"
     showgrid="false"
     fit-margin-top="0"
     fit-margin-left="0"
     fit-margin-right="0"
     fit-margin-bottom="0"
     inkscape:zoom="1.6856283"
     inkscape:cx="32.425485"
     inkscape:cy="11.098704"
     inkscape:window-x="0"
     inkscape:window-y="55"
     inkscape:window-maximized="0"
     inkscape:current-layer="Isolation_Mode" /><path
     d="M 32.326,0 C 14.501,0 0,14.501 0,32.324 0,50.148 14.501,64.65 32.326,64.65 50.151,64.65 64.652,50.148 64.652,32.324 64.651,14.501 50.15,0 32.326,0 Z"
     id="path3"
     inkscape:connector-curvature="0"
     style="fill:#7da97e" /><circle
     cx="32.327007"
     cy="32.324993"
     r="21.271"
     id="circle5"
     style="fill:#fff8df" /><path
     d="m 34.368,30.265 0,-12.215 c 0,-0.72 -0.584,-1.305 -1.305,-1.305 -0.721,0 -1.305,0.585 -1.305,1.305 l 0,12.004 c -0.837,0.417 -1.418,1.271 -1.418,2.271 0,0.393 0.097,0.76 0.255,1.093 l -10.12,10.119 c -0.375,0.374 -0.375,0.983 0,1.359 0.375,0.376 0.985,0.375 1.36,0 L 32.023,34.709 c 0.271,0.098 0.558,0.16 0.862,0.16 1.406,0 2.545,-1.139 2.545,-2.545 -10e-4,-0.849 -0.422,-1.597 -1.062,-2.059 z"
     id="path7"
     inkscape:connector-curvature="0"
     style="fill:#7c6b66" /></svg>